<mxfile host="Electron" agent="Mozilla/5.0 (Windows NT 10.0; Win64; x64) AppleWebKit/537.36 (KHTML, like Gecko) draw.io/28.1.2 Chrome/138.0.7204.243 Electron/37.4.0 Safari/537.36" version="28.1.2" pages="4">
  <diagram name="sd2" id="2R_3gGvKTAEwYUMyVcyW">
    <mxGraphModel dx="874" dy="682" grid="1" gridSize="10" guides="1" tooltips="1" connect="1" arrows="1" fold="1" page="1" pageScale="1" pageWidth="1169" pageHeight="827" math="0" shadow="0">
      <root>
        <mxCell id="c7UmVZ1V7FkFsF-CM6IP-0" />
        <mxCell id="c7UmVZ1V7FkFsF-CM6IP-1" parent="c7UmVZ1V7FkFsF-CM6IP-0" />
        <mxCell id="c7UmVZ1V7FkFsF-CM6IP-2" style="edgeStyle=orthogonalEdgeStyle;rounded=0;orthogonalLoop=1;jettySize=auto;html=1;exitX=0.5;exitY=1;exitDx=0;exitDy=0;endArrow=none;endFill=0;entryX=0.5;entryY=0;entryDx=0;entryDy=0;" parent="c7UmVZ1V7FkFsF-CM6IP-1" source="c7UmVZ1V7FkFsF-CM6IP-3" target="c7UmVZ1V7FkFsF-CM6IP-14" edge="1">
          <mxGeometry relative="1" as="geometry">
            <mxPoint x="540.1578947368421" y="240" as="targetPoint" />
          </mxGeometry>
        </mxCell>
        <mxCell id="c7UmVZ1V7FkFsF-CM6IP-3" value="Walking Distance Calculator" style="rounded=0;whiteSpace=wrap;html=1;" parent="c7UmVZ1V7FkFsF-CM6IP-1" vertex="1">
          <mxGeometry x="480" y="140" width="120" height="60" as="geometry" />
        </mxCell>
        <mxCell id="c7UmVZ1V7FkFsF-CM6IP-4" value="" style="endArrow=none;html=1;" parent="c7UmVZ1V7FkFsF-CM6IP-1" edge="1">
          <mxGeometry width="50" height="50" relative="1" as="geometry">
            <mxPoint x="220" y="240" as="sourcePoint" />
            <mxPoint x="860" y="240" as="targetPoint" />
          </mxGeometry>
        </mxCell>
        <mxCell id="c7UmVZ1V7FkFsF-CM6IP-5" style="edgeStyle=orthogonalEdgeStyle;rounded=0;orthogonalLoop=1;jettySize=auto;html=1;exitX=0.5;exitY=1;exitDx=0;exitDy=0;entryX=0.5;entryY=0;entryDx=0;entryDy=0;endArrow=none;endFill=0;" parent="c7UmVZ1V7FkFsF-CM6IP-1" source="c7UmVZ1V7FkFsF-CM6IP-7" target="c7UmVZ1V7FkFsF-CM6IP-11" edge="1">
          <mxGeometry relative="1" as="geometry" />
        </mxCell>
        <mxCell id="c7UmVZ1V7FkFsF-CM6IP-6" style="edgeStyle=orthogonalEdgeStyle;rounded=0;orthogonalLoop=1;jettySize=auto;html=1;exitX=0.5;exitY=0;exitDx=0;exitDy=0;endArrow=none;endFill=0;" parent="c7UmVZ1V7FkFsF-CM6IP-1" source="c7UmVZ1V7FkFsF-CM6IP-7" edge="1">
          <mxGeometry relative="1" as="geometry">
            <mxPoint x="379.5" y="240" as="targetPoint" />
          </mxGeometry>
        </mxCell>
        <mxCell id="c7UmVZ1V7FkFsF-CM6IP-7" value="Loop for&lt;div&gt;each week&lt;/div&gt;" style="ellipse;whiteSpace=wrap;html=1;" parent="c7UmVZ1V7FkFsF-CM6IP-1" vertex="1">
          <mxGeometry x="320" y="280" width="120" height="60" as="geometry" />
        </mxCell>
        <mxCell id="c7UmVZ1V7FkFsF-CM6IP-8" style="edgeStyle=orthogonalEdgeStyle;rounded=0;orthogonalLoop=1;jettySize=auto;html=1;exitX=0.5;exitY=0;exitDx=0;exitDy=0;endArrow=none;endFill=0;" parent="c7UmVZ1V7FkFsF-CM6IP-1" edge="1">
          <mxGeometry relative="1" as="geometry">
            <mxPoint x="699.5" y="240" as="targetPoint" />
            <mxPoint x="699.5" y="280" as="sourcePoint" />
          </mxGeometry>
        </mxCell>
        <mxCell id="c7UmVZ1V7FkFsF-CM6IP-9" value="" style="endArrow=none;html=1;" parent="c7UmVZ1V7FkFsF-CM6IP-1" edge="1">
          <mxGeometry width="50" height="50" relative="1" as="geometry">
            <mxPoint x="859.5" y="280" as="sourcePoint" />
            <mxPoint x="859.5" y="240" as="targetPoint" />
          </mxGeometry>
        </mxCell>
        <mxCell id="c7UmVZ1V7FkFsF-CM6IP-10" style="edgeStyle=orthogonalEdgeStyle;rounded=0;orthogonalLoop=1;jettySize=auto;html=1;exitX=0.5;exitY=1;exitDx=0;exitDy=0;entryX=0.5;entryY=0;entryDx=0;entryDy=0;endArrow=none;endFill=0;" parent="c7UmVZ1V7FkFsF-CM6IP-1" source="c7UmVZ1V7FkFsF-CM6IP-11" edge="1">
          <mxGeometry relative="1" as="geometry">
            <mxPoint x="380" y="480" as="targetPoint" />
          </mxGeometry>
        </mxCell>
        <mxCell id="c7UmVZ1V7FkFsF-CM6IP-11" value="Get distance" style="rounded=0;whiteSpace=wrap;html=1;" parent="c7UmVZ1V7FkFsF-CM6IP-1" vertex="1">
          <mxGeometry x="320" y="380" width="120" height="60" as="geometry" />
        </mxCell>
        <mxCell id="c7UmVZ1V7FkFsF-CM6IP-12" value="" style="edgeStyle=orthogonalEdgeStyle;rounded=0;orthogonalLoop=1;jettySize=auto;html=1;exitX=0.5;exitY=0;exitDx=0;exitDy=0;entryX=0.5;entryY=1;entryDx=0;entryDy=0;endArrow=none;endFill=0;" parent="c7UmVZ1V7FkFsF-CM6IP-1" source="c7UmVZ1V7FkFsF-CM6IP-13" target="c7UmVZ1V7FkFsF-CM6IP-11" edge="1">
          <mxGeometry relative="1" as="geometry">
            <mxPoint x="380" y="440" as="targetPoint" />
          </mxGeometry>
        </mxCell>
        <mxCell id="c7UmVZ1V7FkFsF-CM6IP-13" value="Add distance&lt;div&gt;to total&lt;/div&gt;" style="rounded=0;whiteSpace=wrap;html=1;" parent="c7UmVZ1V7FkFsF-CM6IP-1" vertex="1">
          <mxGeometry x="320" y="480" width="120" height="60" as="geometry" />
        </mxCell>
        <mxCell id="c7UmVZ1V7FkFsF-CM6IP-14" value="Round total to 0 decimal places" style="rounded=0;whiteSpace=wrap;html=1;" parent="c7UmVZ1V7FkFsF-CM6IP-1" vertex="1">
          <mxGeometry x="480" y="280" width="120" height="60" as="geometry" />
        </mxCell>
        <mxCell id="c7UmVZ1V7FkFsF-CM6IP-15" style="edgeStyle=orthogonalEdgeStyle;rounded=0;orthogonalLoop=1;jettySize=auto;html=1;exitX=0.5;exitY=0;exitDx=0;exitDy=0;entryX=0.5;entryY=1;entryDx=0;entryDy=0;endArrow=none;endFill=0;" parent="c7UmVZ1V7FkFsF-CM6IP-1" source="c7UmVZ1V7FkFsF-CM6IP-16" edge="1">
          <mxGeometry relative="1" as="geometry">
            <mxPoint x="700" y="340" as="targetPoint" />
          </mxGeometry>
        </mxCell>
        <mxCell id="c7UmVZ1V7FkFsF-CM6IP-16" value="Round average to 1 decimal place" style="rounded=0;whiteSpace=wrap;html=1;" parent="c7UmVZ1V7FkFsF-CM6IP-1" vertex="1">
          <mxGeometry x="640" y="380" width="120" height="60" as="geometry" />
        </mxCell>
        <mxCell id="c7UmVZ1V7FkFsF-CM6IP-17" value="Display total" style="rounded=0;whiteSpace=wrap;html=1;" parent="c7UmVZ1V7FkFsF-CM6IP-1" vertex="1">
          <mxGeometry x="800" y="280" width="120" height="60" as="geometry" />
        </mxCell>
        <mxCell id="c7UmVZ1V7FkFsF-CM6IP-18" style="edgeStyle=orthogonalEdgeStyle;rounded=0;orthogonalLoop=1;jettySize=auto;html=1;exitX=0.5;exitY=0;exitDx=0;exitDy=0;entryX=0.5;entryY=1;entryDx=0;entryDy=0;endArrow=none;endFill=0;" parent="c7UmVZ1V7FkFsF-CM6IP-1" source="c7UmVZ1V7FkFsF-CM6IP-19" target="c7UmVZ1V7FkFsF-CM6IP-17" edge="1">
          <mxGeometry relative="1" as="geometry" />
        </mxCell>
        <mxCell id="c7UmVZ1V7FkFsF-CM6IP-19" value="Display average" style="rounded=0;whiteSpace=wrap;html=1;" parent="c7UmVZ1V7FkFsF-CM6IP-1" vertex="1">
          <mxGeometry x="800" y="380" width="120" height="60" as="geometry" />
        </mxCell>
        <mxCell id="c7UmVZ1V7FkFsF-CM6IP-20" value="Calculate average" style="rounded=0;whiteSpace=wrap;html=1;" parent="c7UmVZ1V7FkFsF-CM6IP-1" vertex="1">
          <mxGeometry x="640" y="280" width="120" height="60" as="geometry" />
        </mxCell>
        <mxCell id="c7UmVZ1V7FkFsF-CM6IP-21" style="edgeStyle=orthogonalEdgeStyle;rounded=0;orthogonalLoop=1;jettySize=auto;html=1;exitX=0.5;exitY=0;exitDx=0;exitDy=0;endArrow=none;endFill=0;" parent="c7UmVZ1V7FkFsF-CM6IP-1" source="c7UmVZ1V7FkFsF-CM6IP-22" edge="1">
          <mxGeometry relative="1" as="geometry">
            <mxPoint x="219.5" y="240" as="targetPoint" />
          </mxGeometry>
        </mxCell>
        <mxCell id="c7UmVZ1V7FkFsF-CM6IP-22" value="Initialise variables" style="rounded=0;whiteSpace=wrap;html=1;" parent="c7UmVZ1V7FkFsF-CM6IP-1" vertex="1">
          <mxGeometry x="160" y="280" width="120" height="60" as="geometry" />
        </mxCell>
        <mxCell id="zFJkRMcT1w7f-JYSloo_-1" style="edgeStyle=orthogonalEdgeStyle;rounded=0;orthogonalLoop=1;jettySize=auto;html=1;exitX=0.5;exitY=0;exitDx=0;exitDy=0;entryX=0.5;entryY=1;entryDx=0;entryDy=0;endArrow=none;endFill=0;" parent="c7UmVZ1V7FkFsF-CM6IP-1" source="zFJkRMcT1w7f-JYSloo_-0" target="c7UmVZ1V7FkFsF-CM6IP-22" edge="1">
          <mxGeometry relative="1" as="geometry" />
        </mxCell>
        <mxCell id="zFJkRMcT1w7f-JYSloo_-0" value="Get number&lt;div&gt;of weeks&lt;/div&gt;" style="rounded=0;whiteSpace=wrap;html=1;" parent="c7UmVZ1V7FkFsF-CM6IP-1" vertex="1">
          <mxGeometry x="160" y="380" width="120" height="60" as="geometry" />
        </mxCell>
      </root>
    </mxGraphModel>
  </diagram>
  <diagram id="F0ArDQqnMdtwwOhi-oQp" name="sd3">
    <mxGraphModel dx="1426" dy="849" grid="1" gridSize="10" guides="1" tooltips="1" connect="1" arrows="1" fold="1" page="1" pageScale="1" pageWidth="1169" pageHeight="827" math="0" shadow="0">
      <root>
        <mxCell id="0" />
        <mxCell id="1" parent="0" />
        <mxCell id="tHfTp8u0x6ATJ7flU3Ss-5" style="edgeStyle=orthogonalEdgeStyle;rounded=0;orthogonalLoop=1;jettySize=auto;html=1;exitX=0.5;exitY=1;exitDx=0;exitDy=0;endArrow=none;endFill=0;entryX=0.5;entryY=0;entryDx=0;entryDy=0;" parent="1" source="SsftGCZtgDBo6R44JhK9-2" target="Hfz1_A2j9iumKHlS8wLo-16" edge="1">
          <mxGeometry relative="1" as="geometry">
            <mxPoint x="540.1578947368421" y="240" as="targetPoint" />
          </mxGeometry>
        </mxCell>
        <mxCell id="SsftGCZtgDBo6R44JhK9-2" value="Walking Distance Calculator" style="rounded=0;whiteSpace=wrap;html=1;" parent="1" vertex="1">
          <mxGeometry x="480" y="140" width="120" height="60" as="geometry" />
        </mxCell>
        <mxCell id="SsftGCZtgDBo6R44JhK9-17" value="" style="endArrow=none;html=1;" parent="1" edge="1">
          <mxGeometry width="50" height="50" relative="1" as="geometry">
            <mxPoint x="220" y="240" as="sourcePoint" />
            <mxPoint x="860" y="240" as="targetPoint" />
          </mxGeometry>
        </mxCell>
        <mxCell id="Hfz1_A2j9iumKHlS8wLo-11" style="edgeStyle=orthogonalEdgeStyle;rounded=0;orthogonalLoop=1;jettySize=auto;html=1;exitX=0.5;exitY=1;exitDx=0;exitDy=0;entryX=0.5;entryY=0;entryDx=0;entryDy=0;endArrow=none;endFill=0;" parent="1" source="SsftGCZtgDBo6R44JhK9-19" target="SsftGCZtgDBo6R44JhK9-21" edge="1">
          <mxGeometry relative="1" as="geometry" />
        </mxCell>
        <mxCell id="tHfTp8u0x6ATJ7flU3Ss-4" style="edgeStyle=orthogonalEdgeStyle;rounded=0;orthogonalLoop=1;jettySize=auto;html=1;exitX=0.5;exitY=0;exitDx=0;exitDy=0;endArrow=none;endFill=0;" parent="1" source="SsftGCZtgDBo6R44JhK9-19" edge="1">
          <mxGeometry relative="1" as="geometry">
            <mxPoint x="379.5" y="240" as="targetPoint" />
          </mxGeometry>
        </mxCell>
        <mxCell id="SsftGCZtgDBo6R44JhK9-19" value="Loop 4 times" style="ellipse;whiteSpace=wrap;html=1;" parent="1" vertex="1">
          <mxGeometry x="320" y="280" width="120" height="60" as="geometry" />
        </mxCell>
        <mxCell id="RGvuDBfXI2XmU55CSNJE-3" style="edgeStyle=orthogonalEdgeStyle;rounded=0;orthogonalLoop=1;jettySize=auto;html=1;exitX=0.5;exitY=0;exitDx=0;exitDy=0;endArrow=none;endFill=0;" parent="1" edge="1">
          <mxGeometry relative="1" as="geometry">
            <mxPoint x="699.5" y="240" as="targetPoint" />
            <mxPoint x="699.5" y="280" as="sourcePoint" />
          </mxGeometry>
        </mxCell>
        <mxCell id="RGvuDBfXI2XmU55CSNJE-19" value="" style="endArrow=none;html=1;" parent="1" edge="1">
          <mxGeometry width="50" height="50" relative="1" as="geometry">
            <mxPoint x="859.5" y="280" as="sourcePoint" />
            <mxPoint x="859.5" y="240" as="targetPoint" />
          </mxGeometry>
        </mxCell>
        <mxCell id="Hfz1_A2j9iumKHlS8wLo-6" style="edgeStyle=orthogonalEdgeStyle;rounded=0;orthogonalLoop=1;jettySize=auto;html=1;exitX=0.5;exitY=1;exitDx=0;exitDy=0;entryX=0.5;entryY=0;entryDx=0;entryDy=0;endArrow=none;endFill=0;" parent="1" source="SsftGCZtgDBo6R44JhK9-21" edge="1">
          <mxGeometry relative="1" as="geometry">
            <mxPoint x="380" y="480" as="targetPoint" />
          </mxGeometry>
        </mxCell>
        <mxCell id="SsftGCZtgDBo6R44JhK9-21" value="Get distance" style="rounded=0;whiteSpace=wrap;html=1;" parent="1" vertex="1">
          <mxGeometry x="320" y="380" width="120" height="60" as="geometry" />
        </mxCell>
        <mxCell id="EDKILXyL_THaCUJsp9oX-1" value="" style="edgeStyle=orthogonalEdgeStyle;rounded=0;orthogonalLoop=1;jettySize=auto;html=1;exitX=0.5;exitY=0;exitDx=0;exitDy=0;entryX=0.5;entryY=1;entryDx=0;entryDy=0;endArrow=none;endFill=0;" parent="1" source="Hfz1_A2j9iumKHlS8wLo-7" target="SsftGCZtgDBo6R44JhK9-21" edge="1">
          <mxGeometry relative="1" as="geometry">
            <mxPoint x="380" y="440" as="targetPoint" />
          </mxGeometry>
        </mxCell>
        <mxCell id="Hfz1_A2j9iumKHlS8wLo-7" value="Add distance to total" style="rounded=0;whiteSpace=wrap;html=1;" parent="1" vertex="1">
          <mxGeometry x="320" y="480" width="120" height="60" as="geometry" />
        </mxCell>
        <mxCell id="Hfz1_A2j9iumKHlS8wLo-16" value="Round total to 0 decimal place" style="rounded=0;whiteSpace=wrap;html=1;" parent="1" vertex="1">
          <mxGeometry x="480" y="280" width="120" height="60" as="geometry" />
        </mxCell>
        <mxCell id="Hfz1_A2j9iumKHlS8wLo-23" style="edgeStyle=orthogonalEdgeStyle;rounded=0;orthogonalLoop=1;jettySize=auto;html=1;exitX=0.5;exitY=0;exitDx=0;exitDy=0;entryX=0.5;entryY=1;entryDx=0;entryDy=0;endArrow=none;endFill=0;" parent="1" source="Hfz1_A2j9iumKHlS8wLo-18" edge="1">
          <mxGeometry relative="1" as="geometry">
            <mxPoint x="700" y="340" as="targetPoint" />
          </mxGeometry>
        </mxCell>
        <mxCell id="Hfz1_A2j9iumKHlS8wLo-18" value="Round average to 1 decimal place" style="rounded=0;whiteSpace=wrap;html=1;" parent="1" vertex="1">
          <mxGeometry x="640" y="380" width="120" height="60" as="geometry" />
        </mxCell>
        <mxCell id="Hfz1_A2j9iumKHlS8wLo-19" value="Display total" style="rounded=0;whiteSpace=wrap;html=1;" parent="1" vertex="1">
          <mxGeometry x="800" y="280" width="120" height="60" as="geometry" />
        </mxCell>
        <mxCell id="Hfz1_A2j9iumKHlS8wLo-24" style="edgeStyle=orthogonalEdgeStyle;rounded=0;orthogonalLoop=1;jettySize=auto;html=1;exitX=0.5;exitY=0;exitDx=0;exitDy=0;entryX=0.5;entryY=1;entryDx=0;entryDy=0;endArrow=none;endFill=0;" parent="1" source="Hfz1_A2j9iumKHlS8wLo-20" target="Hfz1_A2j9iumKHlS8wLo-19" edge="1">
          <mxGeometry relative="1" as="geometry" />
        </mxCell>
        <mxCell id="Hfz1_A2j9iumKHlS8wLo-20" value="Display average" style="rounded=0;whiteSpace=wrap;html=1;" parent="1" vertex="1">
          <mxGeometry x="800" y="380" width="120" height="60" as="geometry" />
        </mxCell>
        <mxCell id="tHfTp8u0x6ATJ7flU3Ss-1" value="Calculate average" style="rounded=0;whiteSpace=wrap;html=1;" parent="1" vertex="1">
          <mxGeometry x="640" y="280" width="120" height="60" as="geometry" />
        </mxCell>
        <mxCell id="tHfTp8u0x6ATJ7flU3Ss-3" style="edgeStyle=orthogonalEdgeStyle;rounded=0;orthogonalLoop=1;jettySize=auto;html=1;exitX=0.5;exitY=0;exitDx=0;exitDy=0;endArrow=none;endFill=0;" parent="1" source="tHfTp8u0x6ATJ7flU3Ss-2" edge="1">
          <mxGeometry relative="1" as="geometry">
            <mxPoint x="219.5" y="240" as="targetPoint" />
          </mxGeometry>
        </mxCell>
        <mxCell id="tHfTp8u0x6ATJ7flU3Ss-2" value="Initialise variables" style="rounded=0;whiteSpace=wrap;html=1;" parent="1" vertex="1">
          <mxGeometry x="160" y="280" width="120" height="60" as="geometry" />
        </mxCell>
      </root>
    </mxGraphModel>
  </diagram>
  <diagram name="sd4" id="7ZXIt8HD00hRuN5GzJby">
    <mxGraphModel dx="786" dy="516" grid="1" gridSize="10" guides="1" tooltips="1" connect="1" arrows="1" fold="1" page="1" pageScale="1" pageWidth="1169" pageHeight="827" math="0" shadow="0">
      <root>
        <mxCell id="553evjpsUlIiXzdNVCEH-0" />
        <mxCell id="553evjpsUlIiXzdNVCEH-1" parent="553evjpsUlIiXzdNVCEH-0" />
        <mxCell id="553evjpsUlIiXzdNVCEH-2" style="edgeStyle=none;rounded=0;orthogonalLoop=1;jettySize=auto;html=1;exitX=0.5;exitY=1;exitDx=0;exitDy=0;endArrow=none;endFill=0;" parent="553evjpsUlIiXzdNVCEH-1" source="553evjpsUlIiXzdNVCEH-3" edge="1">
          <mxGeometry relative="1" as="geometry">
            <mxPoint x="600" y="140" as="targetPoint" />
          </mxGeometry>
        </mxCell>
        <mxCell id="553evjpsUlIiXzdNVCEH-3" value="Walking Distance Calculator" style="rounded=0;whiteSpace=wrap;html=1;" parent="553evjpsUlIiXzdNVCEH-1" vertex="1">
          <mxGeometry x="540" y="40" width="120" height="60" as="geometry" />
        </mxCell>
        <mxCell id="553evjpsUlIiXzdNVCEH-4" style="edgeStyle=orthogonalEdgeStyle;rounded=0;orthogonalLoop=1;jettySize=auto;html=1;exitX=0.5;exitY=1;exitDx=0;exitDy=0;entryX=0.5;entryY=0;entryDx=0;entryDy=0;endArrow=none;endFill=0;" parent="553evjpsUlIiXzdNVCEH-1" source="553evjpsUlIiXzdNVCEH-5" target="553evjpsUlIiXzdNVCEH-20" edge="1">
          <mxGeometry relative="1" as="geometry" />
        </mxCell>
        <mxCell id="553evjpsUlIiXzdNVCEH-5" value="Round distance to&lt;br&gt;1 decimal place" style="rounded=0;whiteSpace=wrap;html=1;" parent="553evjpsUlIiXzdNVCEH-1" vertex="1">
          <mxGeometry x="260" y="480" width="120" height="60" as="geometry" />
        </mxCell>
        <mxCell id="553evjpsUlIiXzdNVCEH-6" value="" style="endArrow=none;html=1;" parent="553evjpsUlIiXzdNVCEH-1" edge="1">
          <mxGeometry width="50" height="50" relative="1" as="geometry">
            <mxPoint x="320" y="140" as="sourcePoint" />
            <mxPoint x="860" y="140" as="targetPoint" />
          </mxGeometry>
        </mxCell>
        <mxCell id="553evjpsUlIiXzdNVCEH-7" style="edgeStyle=orthogonalEdgeStyle;rounded=0;orthogonalLoop=1;jettySize=auto;html=1;exitX=0.5;exitY=1;exitDx=0;exitDy=0;entryX=0.5;entryY=0;entryDx=0;entryDy=0;endArrow=none;endFill=0;" parent="553evjpsUlIiXzdNVCEH-1" source="553evjpsUlIiXzdNVCEH-9" target="553evjpsUlIiXzdNVCEH-14" edge="1">
          <mxGeometry relative="1" as="geometry" />
        </mxCell>
        <mxCell id="553evjpsUlIiXzdNVCEH-8" style="edgeStyle=orthogonalEdgeStyle;rounded=0;orthogonalLoop=1;jettySize=auto;html=1;exitX=0.5;exitY=0;exitDx=0;exitDy=0;endArrow=none;endFill=0;" parent="553evjpsUlIiXzdNVCEH-1" source="553evjpsUlIiXzdNVCEH-9" edge="1">
          <mxGeometry relative="1" as="geometry">
            <mxPoint x="320" y="140" as="targetPoint" />
          </mxGeometry>
        </mxCell>
        <mxCell id="553evjpsUlIiXzdNVCEH-9" value="Loop 4 times" style="ellipse;whiteSpace=wrap;html=1;" parent="553evjpsUlIiXzdNVCEH-1" vertex="1">
          <mxGeometry x="260" y="180" width="120" height="60" as="geometry" />
        </mxCell>
        <mxCell id="553evjpsUlIiXzdNVCEH-10" style="edgeStyle=orthogonalEdgeStyle;rounded=0;orthogonalLoop=1;jettySize=auto;html=1;exitX=0.5;exitY=0;exitDx=0;exitDy=0;endArrow=none;endFill=0;" parent="553evjpsUlIiXzdNVCEH-1" edge="1">
          <mxGeometry relative="1" as="geometry">
            <mxPoint x="679.5" y="140" as="targetPoint" />
            <mxPoint x="679.5" y="180" as="sourcePoint" />
          </mxGeometry>
        </mxCell>
        <mxCell id="553evjpsUlIiXzdNVCEH-11" value="" style="endArrow=none;html=1;exitX=0.5;exitY=0;exitDx=0;exitDy=0;" parent="553evjpsUlIiXzdNVCEH-1" edge="1">
          <mxGeometry width="50" height="50" relative="1" as="geometry">
            <mxPoint x="499.5" y="180" as="sourcePoint" />
            <mxPoint x="499.5" y="140" as="targetPoint" />
          </mxGeometry>
        </mxCell>
        <mxCell id="553evjpsUlIiXzdNVCEH-12" value="" style="endArrow=none;html=1;" parent="553evjpsUlIiXzdNVCEH-1" edge="1">
          <mxGeometry width="50" height="50" relative="1" as="geometry">
            <mxPoint x="859.5" y="180" as="sourcePoint" />
            <mxPoint x="859.5" y="140" as="targetPoint" />
          </mxGeometry>
        </mxCell>
        <mxCell id="553evjpsUlIiXzdNVCEH-13" style="edgeStyle=orthogonalEdgeStyle;rounded=0;orthogonalLoop=1;jettySize=auto;html=1;exitX=0.5;exitY=1;exitDx=0;exitDy=0;entryX=0.5;entryY=0;entryDx=0;entryDy=0;endArrow=none;endFill=0;" parent="553evjpsUlIiXzdNVCEH-1" source="553evjpsUlIiXzdNVCEH-14" target="553evjpsUlIiXzdNVCEH-22" edge="1">
          <mxGeometry relative="1" as="geometry" />
        </mxCell>
        <mxCell id="553evjpsUlIiXzdNVCEH-14" value="Get distance" style="rounded=0;whiteSpace=wrap;html=1;" parent="553evjpsUlIiXzdNVCEH-1" vertex="1">
          <mxGeometry x="260" y="280" width="120" height="60" as="geometry" />
        </mxCell>
        <mxCell id="553evjpsUlIiXzdNVCEH-15" style="edgeStyle=orthogonalEdgeStyle;rounded=0;orthogonalLoop=1;jettySize=auto;html=1;exitX=0;exitY=0.5;exitDx=0;exitDy=0;entryX=0;entryY=0.5;entryDx=0;entryDy=0;endArrow=none;endFill=0;startArrow=none;" parent="553evjpsUlIiXzdNVCEH-1" source="553evjpsUlIiXzdNVCEH-17" target="553evjpsUlIiXzdNVCEH-14" edge="1">
          <mxGeometry relative="1" as="geometry">
            <Array as="points">
              <mxPoint x="230" y="310" />
            </Array>
          </mxGeometry>
        </mxCell>
        <mxCell id="553evjpsUlIiXzdNVCEH-16" value="Yes" style="text;html=1;strokeColor=none;fillColor=none;align=center;verticalAlign=middle;whiteSpace=wrap;rounded=0;" parent="553evjpsUlIiXzdNVCEH-1" vertex="1">
          <mxGeometry x="320" y="440" width="40" height="20" as="geometry" />
        </mxCell>
        <mxCell id="553evjpsUlIiXzdNVCEH-17" value="No" style="text;html=1;strokeColor=none;fillColor=none;align=center;verticalAlign=middle;whiteSpace=wrap;rounded=0;" parent="553evjpsUlIiXzdNVCEH-1" vertex="1">
          <mxGeometry x="230" y="390" width="40" height="20" as="geometry" />
        </mxCell>
        <mxCell id="553evjpsUlIiXzdNVCEH-18" value="" style="edgeStyle=orthogonalEdgeStyle;rounded=0;orthogonalLoop=1;jettySize=auto;html=1;exitX=0;exitY=0.5;exitDx=0;exitDy=0;entryX=0;entryY=0.5;entryDx=0;entryDy=0;endArrow=none;endFill=0;" parent="553evjpsUlIiXzdNVCEH-1" source="553evjpsUlIiXzdNVCEH-22" target="553evjpsUlIiXzdNVCEH-17" edge="1">
          <mxGeometry relative="1" as="geometry">
            <mxPoint x="270" y="410" as="sourcePoint" />
            <mxPoint x="260" y="290" as="targetPoint" />
            <Array as="points">
              <mxPoint x="230" y="410" />
            </Array>
          </mxGeometry>
        </mxCell>
        <mxCell id="553evjpsUlIiXzdNVCEH-19" style="edgeStyle=orthogonalEdgeStyle;rounded=0;orthogonalLoop=1;jettySize=auto;html=1;exitX=0.5;exitY=1;exitDx=0;exitDy=0;entryX=0.5;entryY=0;entryDx=0;entryDy=0;endArrow=none;endFill=0;" parent="553evjpsUlIiXzdNVCEH-1" source="553evjpsUlIiXzdNVCEH-20" target="553evjpsUlIiXzdNVCEH-24" edge="1">
          <mxGeometry relative="1" as="geometry" />
        </mxCell>
        <mxCell id="553evjpsUlIiXzdNVCEH-20" value="Add distance to total" style="rounded=0;whiteSpace=wrap;html=1;" parent="553evjpsUlIiXzdNVCEH-1" vertex="1">
          <mxGeometry x="260" y="580" width="120" height="60" as="geometry" />
        </mxCell>
        <mxCell id="553evjpsUlIiXzdNVCEH-21" value="" style="group" parent="553evjpsUlIiXzdNVCEH-1" vertex="1" connectable="0">
          <mxGeometry x="270" y="380" width="100" height="60" as="geometry" />
        </mxCell>
        <mxCell id="553evjpsUlIiXzdNVCEH-22" value="" style="verticalLabelPosition=bottom;verticalAlign=top;html=1;shape=hexagon;perimeter=hexagonPerimeter2;arcSize=6;size=0.16;" parent="553evjpsUlIiXzdNVCEH-21" vertex="1">
          <mxGeometry width="100" height="60" as="geometry" />
        </mxCell>
        <mxCell id="553evjpsUlIiXzdNVCEH-23" value="Is it valid?" style="text;html=1;strokeColor=none;fillColor=none;align=center;verticalAlign=middle;whiteSpace=wrap;rounded=0;" parent="553evjpsUlIiXzdNVCEH-21" vertex="1">
          <mxGeometry x="20" y="20" width="60" height="20" as="geometry" />
        </mxCell>
        <mxCell id="553evjpsUlIiXzdNVCEH-24" value="Store distance" style="rounded=0;whiteSpace=wrap;html=1;" parent="553evjpsUlIiXzdNVCEH-1" vertex="1">
          <mxGeometry x="260" y="680" width="120" height="60" as="geometry" />
        </mxCell>
        <mxCell id="553evjpsUlIiXzdNVCEH-25" style="edgeStyle=orthogonalEdgeStyle;rounded=0;orthogonalLoop=1;jettySize=auto;html=1;exitX=0.5;exitY=1;exitDx=0;exitDy=0;entryX=0.5;entryY=0;entryDx=0;entryDy=0;endArrow=none;endFill=0;" parent="553evjpsUlIiXzdNVCEH-1" source="553evjpsUlIiXzdNVCEH-22" target="553evjpsUlIiXzdNVCEH-5" edge="1">
          <mxGeometry relative="1" as="geometry" />
        </mxCell>
        <mxCell id="553evjpsUlIiXzdNVCEH-26" style="edgeStyle=orthogonalEdgeStyle;rounded=0;orthogonalLoop=1;jettySize=auto;html=1;exitX=0.5;exitY=0;exitDx=0;exitDy=0;entryX=0.5;entryY=1;entryDx=0;entryDy=0;endArrow=none;endFill=0;" parent="553evjpsUlIiXzdNVCEH-1" source="553evjpsUlIiXzdNVCEH-27" target="553evjpsUlIiXzdNVCEH-28" edge="1">
          <mxGeometry relative="1" as="geometry" />
        </mxCell>
        <mxCell id="553evjpsUlIiXzdNVCEH-27" value="Round average to&lt;br&gt;1 decimal place" style="rounded=0;whiteSpace=wrap;html=1;" parent="553evjpsUlIiXzdNVCEH-1" vertex="1">
          <mxGeometry x="440" y="280" width="120" height="60" as="geometry" />
        </mxCell>
        <mxCell id="553evjpsUlIiXzdNVCEH-28" value="Calculate average" style="rounded=0;whiteSpace=wrap;html=1;" parent="553evjpsUlIiXzdNVCEH-1" vertex="1">
          <mxGeometry x="440" y="180" width="120" height="60" as="geometry" />
        </mxCell>
        <mxCell id="553evjpsUlIiXzdNVCEH-29" value="Loop 4 times" style="ellipse;whiteSpace=wrap;html=1;" parent="553evjpsUlIiXzdNVCEH-1" vertex="1">
          <mxGeometry x="620" y="180" width="120" height="60" as="geometry" />
        </mxCell>
        <mxCell id="553evjpsUlIiXzdNVCEH-30" style="edgeStyle=orthogonalEdgeStyle;rounded=0;orthogonalLoop=1;jettySize=auto;html=1;exitX=0.5;exitY=0;exitDx=0;exitDy=0;entryX=0.5;entryY=1;entryDx=0;entryDy=0;endArrow=none;endFill=0;" parent="553evjpsUlIiXzdNVCEH-1" source="553evjpsUlIiXzdNVCEH-31" target="553evjpsUlIiXzdNVCEH-29" edge="1">
          <mxGeometry relative="1" as="geometry" />
        </mxCell>
        <mxCell id="553evjpsUlIiXzdNVCEH-31" value="Display distance" style="rounded=0;whiteSpace=wrap;html=1;" parent="553evjpsUlIiXzdNVCEH-1" vertex="1">
          <mxGeometry x="620" y="280" width="120" height="60" as="geometry" />
        </mxCell>
        <mxCell id="553evjpsUlIiXzdNVCEH-32" value="Display total" style="rounded=0;whiteSpace=wrap;html=1;" parent="553evjpsUlIiXzdNVCEH-1" vertex="1">
          <mxGeometry x="800" y="180" width="120" height="60" as="geometry" />
        </mxCell>
        <mxCell id="553evjpsUlIiXzdNVCEH-33" style="edgeStyle=orthogonalEdgeStyle;rounded=0;orthogonalLoop=1;jettySize=auto;html=1;exitX=0.5;exitY=0;exitDx=0;exitDy=0;entryX=0.5;entryY=1;entryDx=0;entryDy=0;endArrow=none;endFill=0;" parent="553evjpsUlIiXzdNVCEH-1" source="553evjpsUlIiXzdNVCEH-34" target="553evjpsUlIiXzdNVCEH-32" edge="1">
          <mxGeometry relative="1" as="geometry" />
        </mxCell>
        <mxCell id="553evjpsUlIiXzdNVCEH-34" value="Display average" style="rounded=0;whiteSpace=wrap;html=1;" parent="553evjpsUlIiXzdNVCEH-1" vertex="1">
          <mxGeometry x="800" y="280" width="120" height="60" as="geometry" />
        </mxCell>
      </root>
    </mxGraphModel>
  </diagram>
  <diagram name="ux" id="xi9xU0pWGq3P5OKUEAas">
    <mxGraphModel dx="786" dy="516" grid="1" gridSize="10" guides="1" tooltips="1" connect="1" arrows="1" fold="1" page="1" pageScale="1" pageWidth="1169" pageHeight="827" math="0" shadow="0">
      <root>
        <mxCell id="P6TlU-wPTZ_5G9GFOR1F-0" />
        <mxCell id="P6TlU-wPTZ_5G9GFOR1F-1" parent="P6TlU-wPTZ_5G9GFOR1F-0" />
        <mxCell id="P6TlU-wPTZ_5G9GFOR1F-30" value="&lt;b&gt;Input&lt;/b&gt;&lt;br&gt;&lt;br&gt;Week 1: 5.5&lt;br&gt;Week 2: 10&lt;br&gt;Week 3: 6&lt;br&gt;Week 4: 20" style="text;html=1;strokeColor=none;fillColor=none;align=left;verticalAlign=top;whiteSpace=wrap;rounded=0;" parent="P6TlU-wPTZ_5G9GFOR1F-1" vertex="1">
          <mxGeometry x="320" y="160" width="90" height="100" as="geometry" />
        </mxCell>
        <mxCell id="P6TlU-wPTZ_5G9GFOR1F-31" value="&lt;b&gt;Output&lt;/b&gt;&lt;br&gt;&lt;br&gt;Total: 42 miles&lt;br&gt;Average: 10.5 miles" style="text;html=1;strokeColor=none;fillColor=none;align=left;verticalAlign=top;whiteSpace=wrap;rounded=0;" parent="P6TlU-wPTZ_5G9GFOR1F-1" vertex="1">
          <mxGeometry x="440" y="160" width="110" height="70" as="geometry" />
        </mxCell>
      </root>
    </mxGraphModel>
  </diagram>
</mxfile>
